<svg width="46" height="53" viewBox="0 0 46 53" fill="none" xmlns="http://www.w3.org/2000/svg">
<path d="M45.0609 38.475C43.8318 41.2048 43.2395 42.4249 41.6587 44.8341C39.4455 48.2006 36.3238 52.4044 32.4674 52.4311C29.0341 52.4623 28.1479 50.1912 23.4855 50.2313C18.8275 50.2535 17.8567 52.4756 14.4189 52.44C10.5581 52.4044 7.60564 48.6192 5.39243 45.2571C-0.79741 35.8298 -1.45202 24.7772 2.37321 18.8991C5.08071 14.7309 9.36017 12.2817 13.3813 12.2817C17.4782 12.2817 20.0521 14.5305 23.4365 14.5305C26.7229 14.5305 28.7224 12.2773 33.4605 12.2773C37.0408 12.2773 40.826 14.2277 43.5335 17.5943C34.6806 22.4482 36.119 35.0906 45.0609 38.475ZM29.8624 8.51437C31.5857 6.30117 32.8949 3.17953 32.4184 0C29.6085 0.191485 26.3221 1.98609 24.4028 4.31063C22.6617 6.43031 21.2188 9.57422 21.7799 12.6157C24.8481 12.7137 28.0232 10.8834 29.8624 8.51437Z" fill="black"/>
</svg>
