<svg width="50" height="50" viewBox="0 0 50 50" fill="none" xmlns="http://www.w3.org/2000/svg">
<g clip-path="url(#clip0_15_158)">
<path d="M13.3462 44.4578C12.3157 42.7031 11.736 40.7205 11.6587 38.687C11.5915 36.3186 12.1247 33.9715 13.2088 31.8645C14.2929 29.7576 15.8924 27.9594 17.8587 26.637C20.0718 25.1087 22.1615 23.409 24.1087 21.5537C25.596 20.1364 26.7138 18.3767 27.3646 16.4281C28.0154 14.4794 28.1793 12.4011 27.8419 10.3745C27.1765 6.69897 25.8146 3.18452 23.8294 0.0203551C23.8294 -0.0254782 23.6941 0.0203551 23.6941 0.0203551C23.6024 1.07452 23.5566 2.17244 23.3754 3.22869C23.1887 4.83694 22.8218 6.41911 22.2816 7.94536C20.3709 12.1339 17.8851 16.0355 14.8962 19.537C12.5539 22.1555 10.6604 25.143 9.292 28.3787C8.22664 31.1495 8.04415 34.182 8.76957 37.0605C9.49499 39.939 11.0928 42.523 13.3441 44.4578H13.3462ZM30.7607 13.3058C31.1223 15.7081 30.5343 18.1567 29.1212 20.1328C26.8399 23.1758 24.0291 25.7828 20.8232 27.8287C18.3896 29.3936 16.396 31.5542 15.0316 34.1058C13.8407 36.4455 13.6028 39.1556 14.3677 41.667C15.1325 44.1784 16.8409 46.2958 19.1337 47.5745C20.4377 48.3101 21.924 48.6598 23.4191 48.5828C23.0191 48.2926 22.6087 48.0148 22.1879 47.7495C20.341 46.394 19.0973 44.37 18.7224 42.11C18.3476 39.85 18.8713 37.533 20.1816 35.6537C21.8891 33.654 23.9427 31.978 26.2441 30.7058C28.4715 29.2915 30.3554 27.3984 31.7587 25.164C32.7452 23.2964 33.1755 21.185 32.9982 19.0801C32.821 16.9753 32.0437 14.9655 30.7587 13.2891L30.7607 13.3058ZM41.1982 29.1662C40.5934 29.0195 39.9552 29.1144 39.4191 29.4306C38.8832 29.7469 38.4915 30.2595 38.3274 30.86C38.0063 33.1062 37.001 35.199 35.4482 36.8537C34.8493 37.5759 34.1062 38.1651 33.2663 38.5834C32.4265 39.0017 31.5085 39.24 30.5712 39.2828C30.1624 39.3189 29.7515 39.2433 29.3823 39.064C29.0132 38.8848 28.6996 38.6087 28.4751 38.2653C28.2504 37.9219 28.1234 37.5239 28.1073 37.1137C28.0912 36.7037 28.1866 36.297 28.3837 35.937C28.8759 34.9834 29.5398 34.1289 30.3419 33.4162C31.4552 32.3892 32.3427 31.142 32.9482 29.7537C33.0399 29.5245 33.3649 29.2037 32.9941 28.9745C32.7212 28.7912 32.5379 29.1578 32.3566 29.2953C31.0862 30.6248 29.6452 31.7801 28.0712 32.7308C26.7176 33.4476 25.4355 34.2917 24.2419 35.2515C22.9034 36.2283 21.9537 37.6475 21.5616 39.2576C21.1696 40.8678 21.3605 42.5647 22.1004 44.0475C22.9602 45.4087 24.2738 46.4219 25.8088 46.9081C27.3437 47.3942 29.0012 47.3217 30.4879 46.7037C32.0043 46.1201 33.3848 45.2317 34.5441 44.0933C36.1643 42.4701 37.4304 40.5287 38.2623 38.3915C39.0941 36.2544 39.474 33.968 39.3774 31.6765C39.3294 29.8433 39.3774 29.8433 41.1982 29.1558V29.1662Z" fill="#F33D66"/>
</g>
<defs>
<clipPath id="clip0_15_158">
<rect width="50" height="50" fill="white"/>
</clipPath>
</defs>
</svg>
