<svg width="50" height="50" viewBox="0 0 50 50" fill="none" xmlns="http://www.w3.org/2000/svg">
<g clip-path="url(#clip0_15_151)">
<path d="M16.7937 4.86539C15.73 4.86539 14.6901 5.1823 13.8055 5.77607C12.9209 6.36985 12.2312 7.21385 11.8236 8.20145C11.416 9.18905 11.3087 10.2759 11.5153 11.3248C11.722 12.3736 12.2332 13.3374 12.9845 14.0943C13.7358 14.8512 14.6934 15.3673 15.7364 15.5774C16.7794 15.7875 17.8609 15.6822 18.8443 15.2747C19.8278 14.8672 20.669 14.1759 21.2617 13.288C21.8544 12.4002 22.1721 11.3557 22.1745 10.2865C22.1745 8.85085 21.608 7.47384 20.5992 6.45755C19.5905 5.44125 18.2219 4.86866 16.7937 4.86539ZM16.7937 14.1763C16.0283 14.1763 15.2801 13.9482 14.6437 13.5208C14.0073 13.0933 13.5114 12.4858 13.2185 11.7751C12.9256 11.0643 12.8489 10.2822 12.9982 9.52761C13.1476 8.77305 13.5161 8.07994 14.0573 7.53594C14.5985 6.99193 15.288 6.62146 16.0387 6.47137C16.7894 6.32128 17.5675 6.39831 18.2746 6.69273C18.9817 6.98714 19.5861 7.48571 20.0113 8.12539C20.4365 8.76508 20.6634 9.51714 20.6634 10.2865C20.6634 11.3181 20.2557 12.3075 19.53 13.037C18.8043 13.7665 17.82 14.1763 16.7937 14.1763Z" fill="#1B181C"/>
<path d="M44.9263 12.0276C45.122 12.0145 45.3079 11.9363 45.4546 11.8054C45.5939 11.6588 45.6729 11.4647 45.6757 11.262C45.6683 11.0603 45.59 10.8677 45.4546 10.7187C45.3047 10.5875 45.1127 10.5153 44.914 10.5153C44.7153 10.5153 44.5233 10.5875 44.3735 10.7187C44.2423 10.8704 44.1646 11.0614 44.1523 11.262C44.1607 11.4635 44.239 11.6557 44.3735 11.8054C44.5267 11.9414 44.722 12.02 44.9263 12.0276Z" fill="#1B181C"/>
<path d="M42.3217 13.5836C42.4098 13.5359 42.4874 13.471 42.5501 13.3926C42.6128 13.3143 42.6593 13.2241 42.6868 13.1274C42.7142 13.0308 42.7222 12.9295 42.7101 12.8297C42.6981 12.7299 42.6663 12.6335 42.6166 12.5463C42.5682 12.4595 42.5033 12.3832 42.4255 12.3217C42.3478 12.2601 42.2587 12.2146 42.1635 12.1876C41.9711 12.1332 41.7651 12.1578 41.5908 12.2561C41.4165 12.3544 41.2881 12.5182 41.234 12.7116C41.1799 12.9049 41.2043 13.112 41.3021 13.2872C41.4025 13.4579 41.5639 13.5837 41.7534 13.6388C41.9429 13.6939 42.1462 13.6741 42.3217 13.5836Z" fill="#1B181C"/>
<path d="M38.9926 15.4112C39.0932 15.4146 39.1934 15.3966 39.2866 15.3583C39.3798 15.32 39.4638 15.2622 39.5332 15.1889C39.6644 15.0481 39.7388 14.8632 39.742 14.6703C39.7402 14.4697 39.666 14.2766 39.5332 14.1269C39.4266 14.0191 39.2906 13.9455 39.1423 13.9156C38.994 13.8858 38.8403 13.9009 38.7006 13.9592C38.561 14.0175 38.4417 14.1162 38.3581 14.2428C38.2744 14.3695 38.2302 14.5183 38.231 14.6703C38.2337 14.8657 38.3132 15.0521 38.4521 15.1889C38.5199 15.2642 38.6037 15.3233 38.6972 15.3618C38.7908 15.4003 38.8917 15.4171 38.9926 15.4112Z" fill="#1B181C"/>
<path d="M48.7223 4.37143L32.9484 13.3983L27.027 10.0148C27.027 7.28337 25.9475 4.66383 24.0261 2.73242C22.1047 0.801011 19.4986 -0.284042 16.7813 -0.284042C14.064 -0.284042 11.4579 0.801011 9.53649 2.73242C7.61505 4.66383 6.5356 7.28337 6.5356 10.0148L0.257956 13.5836C0.139778 13.6521 0.0420866 13.7513 -0.0249072 13.8708C-0.091901 13.9903 -0.125737 14.1256 -0.12288 14.2628V49.1232C-0.122634 49.2564 -0.0872572 49.3872 -0.0203558 49.5021C0.0465457 49.6171 0.142579 49.7122 0.257956 49.7777C0.369582 49.8426 0.497851 49.8726 0.626506 49.8641C0.759147 49.8736 0.891624 49.8436 1.00734 49.7777L16.7936 40.7508L32.5675 49.7901C32.6572 49.8021 32.7481 49.8021 32.8378 49.7901H33.0958C33.0958 49.7901 33.0958 49.7901 33.1572 49.7901L49.2997 40.5532C49.4154 40.4818 49.5111 40.382 49.5777 40.2632C49.6443 40.1444 49.6797 40.0104 49.6806 39.874V5.02591C49.6816 4.89259 49.6474 4.76139 49.5814 4.64571C49.5155 4.53003 49.4202 4.43401 49.3053 4.36745C49.1903 4.3009 49.0599 4.2662 48.9273 4.2669C48.7946 4.2676 48.6646 4.30367 48.5503 4.37143H48.7223ZM1.40046 14.7073L6.64616 11.7066C6.90939 13.4422 7.39671 15.1359 8.09579 16.7449L1.40046 20.5853V14.7073ZM1.40046 22.3265L8.69776 18.1526C10.6007 22.0874 12.9063 25.8121 15.5774 29.2665L1.40046 37.3549V22.3265ZM16.0442 39.4295L9.59457 43.1341C10.1597 40.8743 11.7936 36.8609 16.0442 36.3423V39.4295ZM16.0442 34.7987C9.64371 35.4285 8.12036 42.3685 7.83781 44.1096L1.40046 47.8143V39.1701L16.0442 30.7977V34.7987ZM8.04665 10.2C8.04665 7.86817 8.9682 5.63181 10.6086 3.98294C12.2489 2.33406 14.4738 1.40773 16.7936 1.40773C19.1134 1.40773 21.3382 2.33406 22.9786 3.98294C24.619 5.63181 25.5405 7.86817 25.5405 10.2C25.5405 16.3744 18.8452 25.6236 16.7936 28.3403C14.742 25.6236 8.04665 16.362 8.04665 10.2ZM18.0221 29.2418C20.6791 25.7801 22.98 22.0564 24.8894 18.1279L28.5749 20.2272C28.2555 22.0548 26.7199 28.4021 22.9238 32.1067L18.0221 29.2418ZM21.7076 33.0822C20.5 33.9801 19.0742 34.5346 17.5798 34.6876V30.736L21.7076 33.0822ZM32.1867 47.7896L17.5553 39.4295V36.1941C19.6046 36.0269 21.5565 35.2438 23.1572 33.9466L32.1867 39.1084V47.7896ZM32.1867 37.3549L24.3366 32.8599C27.9361 29.1306 29.484 23.4626 29.9263 20.9928L32.1867 22.2277V37.3549ZM33.71 47.7896V39.1454L41.081 34.8975L36.167 46.4312L33.71 47.7896ZM48.3415 39.4295L38.3538 45.1469L48.3415 21.7831V39.4295ZM48.3415 17.9427L42.0884 32.5389L33.71 37.3549V22.3265L48.3415 13.9417V17.9427ZM48.3415 12.2005L32.9484 20.9928L25.4914 16.7202C26.1905 15.1112 26.6778 13.4175 26.941 11.6819L32.5675 14.9172C32.6833 14.9844 32.8147 15.0198 32.9484 15.0198C33.0821 15.0198 33.2134 14.9844 33.3292 14.9172L48.3415 6.27313V12.2005Z" fill="#1B181C"/>
</g>
<defs>
<clipPath id="clip0_15_151">
<rect width="50" height="50" fill="white"/>
</clipPath>
</defs>
</svg>
