<svg width="57" height="57" viewBox="0 0 57 57" fill="none" xmlns="http://www.w3.org/2000/svg">
<path d="M28.5 5.9375C22.5161 5.9375 16.7772 8.31461 12.5459 12.5459C8.31461 16.7772 5.9375 22.5161 5.9375 28.5C5.9375 34.4839 8.31461 40.2228 12.5459 44.4541C16.7772 48.6854 22.5161 51.0625 28.5 51.0625C34.4839 51.0625 40.2228 48.6854 44.4541 44.4541C48.6854 40.2228 51.0625 34.4839 51.0625 28.5C51.0625 22.5161 48.6854 16.7772 44.4541 12.5459C40.2228 8.31461 34.4839 5.9375 28.5 5.9375Z" fill="#039BE5"/>
<path d="M31.5543 34.4803H37.3932L38.31 28.5487H31.5531V25.3068C31.5531 22.8428 32.3582 20.6578 34.6632 20.6578H38.367V15.4814C37.7162 15.3936 36.3399 15.2012 33.7393 15.2012C28.3088 15.2012 25.1252 18.069 25.1252 24.6026V28.5487H19.5427V34.4803H25.1252V50.7834C26.2307 50.9497 27.3505 51.0625 28.5 51.0625C29.5391 51.0625 30.5532 50.9675 31.5543 50.8321V34.4803Z" fill="white"/>
</svg>
