<svg width="20" height="32" viewBox="0 0 20 32" fill="none" xmlns="http://www.w3.org/2000/svg">
<path d="M1.68334 12.3832C2.61302 12.3832 3.36667 11.6638 3.36667 10.7764C3.36667 9.889 2.61302 9.16962 1.68334 9.16962C0.753655 9.16962 0 9.889 0 10.7764C0 11.6638 0.753655 12.3832 1.68334 12.3832Z" fill="black"/>
<path d="M16.1227 6.48856C17.9999 6.48856 19.5216 5.03604 19.5216 3.24427C19.5216 1.45249 17.9999 -3.05176e-05 16.1227 -3.05176e-05C14.2456 -3.05176e-05 12.7239 1.45249 12.7239 3.24427C12.7239 5.03604 14.2456 6.48856 16.1227 6.48856Z" fill="black"/>
<path d="M9.11257 6.30352C10.2836 6.30352 11.2328 5.39741 11.2328 4.27967C11.2328 3.16194 10.2836 2.25583 9.11257 2.25583C7.94158 2.25583 6.99231 3.16194 6.99231 4.27967C6.99231 5.39741 7.94158 6.30352 9.11257 6.30352Z" fill="black"/>
<path d="M18.8788 24.8971C18.3411 24.0693 18.0251 23.096 18.0251 22.0502C18.0251 21.1384 18.2639 20.2806 18.6811 19.5265L18.6679 19.5076C19.5084 18.3042 20 16.8598 20 15.3052C20 11.1139 16.4402 7.71643 12.0497 7.71643C7.65872 7.71643 4.09937 11.1139 4.09937 15.3052C4.09937 16.1238 4.23893 16.9105 4.49054 17.6495C4.65957 18.3127 4.93212 18.9355 5.29228 19.5039L5.25506 19.5242L11.0138 29.0454C11.6217 30.7625 13.3193 32 15.3229 32C17.8367 32 19.8755 30.055 19.8755 27.6551C19.8755 26.6142 19.4909 25.6591 18.8509 24.9108L18.8788 24.8971Z" fill="#6BA5C6"/>
<path d="M4.63439 8.98165C5.56407 8.98165 6.31772 8.26226 6.31772 7.37486C6.31772 6.48745 5.56407 5.76807 4.63439 5.76807C3.70471 5.76807 2.95105 6.48745 2.95105 7.37486C2.95105 8.26226 3.70471 8.98165 4.63439 8.98165Z" fill="black"/>
</svg>
