<svg width="57" height="57" viewBox="0 0 57 57" fill="none" xmlns="http://www.w3.org/2000/svg">
<path d="M51.7881 23.8486H49.875V23.75H28.5V33.25H41.9223C39.9641 38.7802 34.7023 42.75 28.5 42.75C20.6304 42.75 14.25 36.3696 14.25 28.5C14.25 20.6304 20.6304 14.25 28.5 14.25C32.1326 14.25 35.4374 15.6204 37.9537 17.8588L44.6714 11.1411C40.4296 7.18794 34.7557 4.75 28.5 4.75C15.3841 4.75 4.75 15.3841 4.75 28.5C4.75 41.6159 15.3841 52.25 28.5 52.25C41.6159 52.25 52.25 41.6159 52.25 28.5C52.25 26.9076 52.0861 25.3531 51.7881 23.8486Z" fill="#FBC02D"/>
<path d="M7.48828 17.4456L15.2913 23.1681C17.4027 17.9408 22.5161 14.25 28.4999 14.25C32.1325 14.25 35.4373 15.6204 37.9536 17.8588L44.6713 11.1411C40.4295 7.18794 34.7557 4.75 28.4999 4.75C19.3775 4.75 11.4664 9.90019 7.48828 17.4456Z" fill="#E53935"/>
<path d="M28.4999 52.25C34.6345 52.25 40.2086 49.9023 44.4231 46.0845L37.0724 39.8644C34.6879 41.6706 31.7239 42.75 28.4999 42.75C22.3225 42.75 17.0773 38.8111 15.1013 33.3141L7.35645 39.2813C11.2871 46.9727 19.2694 52.25 28.4999 52.25Z" fill="#4CAF50"/>
<path d="M51.7881 23.8486L51.7691 23.75H49.875H28.5V33.25H41.9223C40.9818 35.9064 39.273 38.1971 37.069 39.8656L37.0726 39.8632L44.4232 46.0833C43.9031 46.5559 52.25 40.375 52.25 28.5C52.25 26.9076 52.0861 25.3531 51.7881 23.8486Z" fill="#1565C0"/>
</svg>
