<svg width="40" height="40" viewBox="0 0 40 40" fill="none" xmlns="http://www.w3.org/2000/svg">
<rect width="40" height="40" rx="8" fill="#E8EDF5"/>
<g clip-path="url(#clip0_17_288)">
<path fill-rule="evenodd" clip-rule="evenodd" d="M28.5153 17.7284L21.0153 10.6522C21.0116 10.649 21.0082 10.6455 21.005 10.6419C20.4328 10.1215 19.5588 10.1215 18.9866 10.6419L18.9762 10.6522L11.4847 17.7284C11.1757 18.0125 10.9999 18.4131 11 18.8328V27.5C11 28.3284 11.6716 29 12.5 29H17C17.8284 29 18.5 28.3284 18.5 27.5V23H21.5V27.5C21.5 28.3284 22.1716 29 23 29H27.5C28.3284 29 29 28.3284 29 27.5V18.8328C29.0001 18.4131 28.8243 18.0125 28.5153 17.7284ZM27.5 27.5H23V23C23 22.1716 22.3284 21.5 21.5 21.5H18.5C17.6716 21.5 17 22.1716 17 23V27.5H12.5V18.8328L12.5103 18.8234L20 11.75L27.4906 18.8216L27.5009 18.8309L27.5 27.5Z" fill="#0D141C"/>
</g>
<defs>
<clipPath id="clip0_17_288">
<rect width="24" height="24" fill="white" transform="translate(8 8)"/>
</clipPath>
</defs>
</svg>
