<svg version="1.1" id="Layer_1" xmlns="http://www.w3.org/2000/svg" xmlns:xlink="http://www.w3.org/1999/xlink" x="0px" y="0px"
	 width="100%" viewBox="0 0 610 516" enable-background="new 0 0 610 516" xml:space="preserve">
<path fill="#FDFDFD" opacity="1.000000" stroke="none" 
	d="
M349.000000,517.000000 
	C232.692383,517.000000 116.884758,517.000000 1.038567,517.000000 
	C1.038567,345.063904 1.038567,173.127777 1.038567,1.095835 
	C204.224258,1.095835 407.448578,1.095835 610.836426,1.095835 
	C610.836426,172.999878 610.836426,344.999908 610.836426,517.000000 
	C523.794495,517.000000 436.647247,517.000000 349.000000,517.000000 
M454.267761,452.713928 
	C457.145691,451.059906 458.722839,452.201538 460.751312,454.677765 
	C465.579773,460.571930 470.395294,466.707520 476.236267,471.502930 
	C507.614807,497.264618 551.380249,495.923126 582.340576,467.087006 
	C568.063293,443.979614 553.759033,420.828522 539.389893,397.572418 
	C541.178101,395.601410 542.761719,393.905121 544.292053,392.162140 
	C603.822144,324.361877 616.132080,225.982483 575.308960,145.438492 
	C573.824646,142.509933 572.147949,141.935791 569.210938,141.941910 
	C528.220825,142.027298 487.230438,141.997406 446.240112,142.010178 
	C444.881073,142.010605 443.522064,142.164688 441.437347,142.291168 
	C512.437683,181.960617 516.080322,268.045532 483.088684,311.750885 
	C469.746155,287.761169 450.851746,271.017639 423.292786,266.068970 
	C395.626862,261.101044 372.394318,270.686615 351.682983,288.645050 
	C367.772339,313.061584 383.772919,337.343445 399.838562,361.723999 
	C370.410065,366.597687 322.311005,351.922668 296.339783,307.151825 
	C279.595276,278.286682 275.493134,247.362122 284.160065,215.172974 
	C292.801056,183.080246 312.125031,158.886566 342.229553,141.999817 
	C298.189423,141.999817 255.547516,141.986298 212.905777,142.065308 
	C211.632172,142.067657 209.580536,142.713364 209.205338,143.609268 
	C204.024628,155.979706 196.896484,168.053146 194.560822,180.979111 
	C190.728989,202.185165 189.327652,223.922531 188.199432,245.503723 
	C186.433960,279.275208 190.607269,311.965363 205.771881,343.070831 
	C250.298233,434.402618 351.037598,484.653046 454.267761,452.713928 
M217.500000,127.963417 
	C334.249268,127.963417 450.998566,127.963417 568.687866,127.963417 
	C567.075989,125.594261 566.079468,123.943871 564.905579,122.431099 
	C523.230347,68.724655 467.990784,40.810886 400.429199,40.277924 
	C276.773438,39.302448 153.104477,40.000183 29.441025,40.000168 
	C27.819836,40.000168 26.198645,40.000168 24.396265,40.000168 
	C24.396265,170.195557 24.396265,299.914551 24.396265,429.614502 
	C55.731464,429.614502 86.775101,429.614502 118.254021,429.614502 
	C118.254021,375.652405 118.254021,322.074951 118.254021,267.952667 
	C140.569931,267.952667 162.452271,267.952667 184.491486,267.952667 
	C181.138168,238.972809 182.933136,210.670013 186.994431,181.933167 
	C163.771149,181.933167 141.026016,181.933167 118.272331,181.933167 
	C118.272331,163.718475 118.272331,145.985535 118.272331,127.963409 
	C151.219193,127.963409 183.859589,127.963409 217.500000,127.963417 
z"/>
<path fill="#010101" opacity="1.000000" stroke="none" 
	d="
M453.882812,452.836670 
	C351.037598,484.653046 250.298233,434.402618 205.771881,343.070831 
	C190.607269,311.965363 186.433960,279.275208 188.199432,245.503723 
	C189.327652,223.922531 190.728989,202.185165 194.560822,180.979111 
	C196.896484,168.053146 204.024628,155.979706 209.205338,143.609268 
	C209.580536,142.713364 211.632172,142.067657 212.905777,142.065308 
	C255.547516,141.986298 298.189423,141.999817 342.229553,141.999817 
	C312.125031,158.886566 292.801056,183.080246 284.160065,215.172974 
	C275.493134,247.362122 279.595276,278.286682 296.339783,307.151825 
	C322.311005,351.922668 370.410065,366.597687 399.838562,361.723999 
	C383.772919,337.343445 367.772339,313.061584 351.682983,288.645050 
	C372.394318,270.686615 395.626862,261.101044 423.292786,266.068970 
	C450.851746,271.017639 469.746155,287.761169 483.088684,311.750885 
	C516.080322,268.045532 512.437683,181.960617 441.437347,142.291168 
	C443.522064,142.164688 444.881073,142.010605 446.240112,142.010178 
	C487.230438,141.997406 528.220825,142.027298 569.210938,141.941910 
	C572.147949,141.935791 573.824646,142.509933 575.308960,145.438492 
	C616.132080,225.982483 603.822144,324.361877 544.292053,392.162140 
	C542.761719,393.905121 541.178101,395.601410 539.389893,397.572418 
	C553.759033,420.828522 568.063293,443.979614 582.340576,467.087006 
	C551.380249,495.923126 507.614807,497.264618 476.236267,471.502930 
	C470.395294,466.707520 465.579773,460.571930 460.751312,454.677765 
	C458.722839,452.201538 457.145691,451.059906 453.882812,452.836670 
z"/>
<path fill="#D02E1F" opacity="1.000000" stroke="none" 
	d="
M217.000000,127.963409 
	C183.859589,127.963409 151.219193,127.963409 118.272331,127.963409 
	C118.272331,145.985535 118.272331,163.718475 118.272331,181.933167 
	C141.026016,181.933167 163.771149,181.933167 186.994431,181.933167 
	C182.933136,210.670013 181.138168,238.972809 184.491486,267.952667 
	C162.452271,267.952667 140.569931,267.952667 118.254021,267.952667 
	C118.254021,322.074951 118.254021,375.652405 118.254021,429.614502 
	C86.775101,429.614502 55.731464,429.614502 24.396265,429.614502 
	C24.396265,299.914551 24.396265,170.195557 24.396265,40.000168 
	C26.198645,40.000168 27.819836,40.000168 29.441025,40.000168 
	C153.104477,40.000183 276.773438,39.302448 400.429199,40.277924 
	C467.990784,40.810886 523.230347,68.724655 564.905579,122.431099 
	C566.079468,123.943871 567.075989,125.594261 568.687866,127.963417 
	C450.998566,127.963417 334.249268,127.963417 217.000000,127.963409 
z"/>
</svg>