<svg width="40" height="40" viewBox="0 0 40 40" fill="none" xmlns="http://www.w3.org/2000/svg">
<rect width="40" height="40" rx="8" fill="#E8EDF5"/>
<g clip-path="url(#clip0_17_270)">
<path fill-rule="evenodd" clip-rule="evenodd" d="M20 10.25C14.6152 10.25 10.25 14.6152 10.25 20C10.25 25.3848 14.6152 29.75 20 29.75C25.3848 29.75 29.75 25.3848 29.75 20C29.7443 14.6176 25.3824 10.2557 20 10.25ZM14.945 26.5156C16.0476 24.7912 17.9532 23.7478 20 23.7478C22.0468 23.7478 23.9524 24.7912 25.055 26.5156C22.0817 28.828 17.9183 28.828 14.945 26.5156ZM17 19.25C17 17.5931 18.3431 16.25 20 16.25C21.6569 16.25 23 17.5931 23 19.25C23 20.9069 21.6569 22.25 20 22.25C18.3431 22.25 17 20.9069 17 19.25ZM26.165 25.4759C25.3285 24.2638 24.1524 23.3261 22.7844 22.7806C24.2906 21.5943 24.8797 19.5838 24.2519 17.7721C23.6242 15.9604 21.9174 14.7455 20 14.7455C18.0826 14.7455 16.3758 15.9604 15.7481 17.7721C15.1203 19.5838 15.7094 21.5943 17.2156 22.7806C15.8476 23.3261 14.6715 24.2638 13.835 25.4759C10.8905 22.1647 11.0875 17.1188 14.2813 14.0473C17.4751 10.9758 22.5249 10.9758 25.7187 14.0473C28.9125 17.1188 29.1095 22.1647 26.165 25.4759Z" fill="#0D141C"/>
</g>
<defs>
<clipPath id="clip0_17_270">
<rect width="24" height="24" fill="white" transform="translate(8 8)"/>
</clipPath>
</defs>
</svg>
