<svg version="1.1" id="Layer_1" xmlns="http://www.w3.org/2000/svg" xmlns:xlink="http://www.w3.org/1999/xlink" x="0px" y="0px"
	 width="100%" viewBox="0 0 1937 1709" enable-background="new 0 0 1937 1709" xml:space="preserve">
<path fill="#000000" opacity="1.000000" stroke="none" 
	d="
M1938.000000,1042.000000 
	C1938.000000,1264.625854 1938.000000,1487.251709 1938.000000,1710.000000 
	C1430.300659,1710.000000 922.601196,1710.000000 414.259766,1709.632446 
	C414.119171,1708.868530 414.566010,1708.244751 415.130188,1708.109253 
	C429.315002,1704.701660 440.442993,1696.984497 448.670349,1684.899536 
	C456.633698,1673.202393 458.678680,1660.257935 458.103577,1646.417358 
	C457.651550,1635.538574 454.983246,1625.545044 448.972046,1616.503540 
	C438.501984,1600.755615 422.468384,1595.277466 404.912720,1595.178711 
	C330.267334,1594.758545 255.618179,1595.000000 180.970398,1595.000000 
	C179.227188,1595.000000 177.483978,1595.000000 174.599487,1595.000000 
	C182.444229,1585.040405 189.714325,1576.073853 196.696274,1566.888062 
	C208.926422,1550.797729 220.944672,1534.546509 233.117844,1518.412598 
	C243.625702,1504.485962 254.233322,1490.634521 264.782562,1476.739014 
	C275.254272,1462.945557 285.638824,1449.085449 296.188721,1435.352051 
	C307.718933,1420.342529 319.490051,1405.517578 330.978638,1390.476562 
	C340.977844,1377.385498 350.628693,1364.028320 360.616425,1350.928345 
	C372.978943,1334.713379 385.622589,1318.712524 397.972351,1302.488037 
	C408.925140,1288.098877 420.238953,1273.929688 430.282837,1258.920288 
	C439.008911,1245.880005 446.973541,1232.183716 453.808502,1218.067383 
	C460.165405,1204.938232 459.046814,1190.398682 456.828094,1176.339844 
	C455.062073,1165.149170 449.607361,1155.546265 440.059235,1149.110718 
	C430.190765,1142.459229 418.736786,1140.090576 407.056580,1140.077759 
	C290.752838,1139.949585 174.448868,1139.966187 58.145016,1140.040894 
	C42.793545,1140.050781 29.073328,1145.440674 18.446997,1156.338257 
	C9.094877,1165.929077 3.250348,1177.771851 2.914541,1191.717529 
	C2.887837,1192.826538 1.666277,1193.906494 1.000000,1195.000000 
	C1.000000,797.067139 1.000000,399.134277 1.000000,1.000000 
	C397.032684,1.000000 793.065430,1.000000 1189.734131,1.402437 
	C1187.691284,2.219152 1185.001587,2.572292 1182.335815,3.057852 
	C1167.298584,5.796937 1153.025269,10.474314 1139.850098,18.519033 
	C1121.020752,30.016171 1106.313599,45.432201 1096.134888,64.824066 
	C1084.468506,87.049843 1080.751953,110.688705 1084.872192,135.712418 
	C1089.385620,163.123260 1101.273071,186.052399 1122.567993,204.170975 
	C1143.697998,222.149185 1168.495483,230.723984 1195.625610,230.811218 
	C1326.114380,231.230820 1456.605347,230.999985 1587.095459,231.000046 
	C1589.089966,231.000046 1591.084595,231.000015 1593.692505,231.000015 
	C1592.905884,232.488037 1592.419434,233.643463 1591.736084,234.667313 
	C1554.825684,289.961121 1517.844238,345.207458 1480.988892,400.537903 
	C1443.342407,457.056305 1405.886597,513.701782 1368.220825,570.207275 
	C1331.878174,624.727844 1295.308716,679.097107 1258.958862,733.612732 
	C1218.552124,794.212402 1178.498779,855.048828 1137.842529,915.479980 
	C1121.821289,939.294006 1105.179443,962.645386 1093.469116,989.030396 
	C1086.423096,1004.906189 1081.862793,1020.901855 1083.660522,1038.868774 
	C1085.234741,1054.599731 1087.076904,1070.040649 1093.073730,1084.692505 
	C1099.557861,1100.534790 1109.612915,1113.660400 1124.161499,1123.025146 
	C1144.395386,1136.049805 1167.162598,1140.808350 1190.601929,1140.839111 
	C1400.252441,1141.115112 1609.903320,1141.006470 1819.554199,1140.958862 
	C1824.321655,1140.957764 1829.086060,1140.293579 1833.856689,1140.025024 
	C1847.142700,1139.276978 1859.581787,1135.259277 1871.217041,1129.200562 
	C1885.843140,1121.584595 1898.941162,1111.941284 1909.652100,1099.026123 
	C1922.957520,1082.983032 1932.339111,1065.282471 1936.060303,1044.684692 
	C1936.237183,1043.704956 1937.332520,1042.891113 1938.000000,1042.000000 
M966.926941,1229.824463 
	C963.165283,1223.578125 960.489075,1216.201172 955.411133,1211.325806 
	C945.495056,1201.805176 932.763428,1197.098633 918.923218,1197.071045 
	C843.759460,1196.921509 768.595154,1196.999878 693.431091,1196.999756 
	C691.523376,1196.999756 689.615723,1196.999756 687.000549,1196.999756 
	C688.647461,1194.714966 689.727539,1193.128052 690.896118,1191.609375 
	C700.851074,1178.671997 710.894714,1165.802002 720.769714,1152.803833 
	C733.103333,1136.569580 745.221680,1120.171387 757.579712,1103.955933 
	C772.913818,1083.835571 788.462708,1063.878906 803.797485,1043.759155 
	C816.152100,1027.549438 828.247070,1011.141785 840.600952,994.931580 
	C855.935242,974.810669 871.491638,954.859131 886.814575,934.729614 
	C901.220764,915.804382 915.344788,896.664062 929.786255,877.766052 
	C941.539734,862.385620 952.582520,846.669006 961.534485,829.360413 
	C969.877991,813.228088 971.695801,796.713135 968.987732,779.244934 
	C967.438416,769.250549 963.546082,759.984802 955.887390,753.557068 
	C946.121826,745.360962 933.950867,742.072998 921.274292,742.061584 
	C805.111755,741.956970 688.948975,741.989136 572.786316,742.042419 
	C568.358032,742.044434 563.836609,742.207092 559.518616,743.083374 
	C543.876404,746.257935 531.215515,753.853821 522.917908,768.068176 
	C516.276917,779.444580 514.017456,791.428955 514.841553,804.551025 
	C515.844299,820.517700 521.228394,833.948486 533.724792,844.227661 
	C542.699646,851.610352 553.094482,855.871094 564.601013,855.900452 
	C640.264587,856.093506 715.928894,856.000000 791.592957,856.000000 
	C793.502869,856.000000 795.412842,856.000000 798.064819,856.000000 
	C796.904175,857.818420 796.285156,858.927429 795.535339,859.939514 
	C791.590088,865.264648 787.595581,870.553162 783.648010,875.876587 
	C760.753662,906.750366 737.881226,937.640320 714.975037,968.505310 
	C692.830627,998.343567 670.668335,1028.168701 648.488159,1057.980347 
	C625.148560,1089.350464 601.628357,1120.587769 578.468201,1152.089600 
	C559.288147,1178.177612 540.239441,1204.372925 521.737976,1230.942261 
	C516.365173,1238.657959 513.801270,1248.105225 514.077271,1257.772949 
	C514.239807,1263.468872 515.044800,1269.190308 516.063293,1274.809204 
	C518.456360,1288.011597 524.679443,1298.590698 537.048828,1305.062500 
	C548.379211,1310.990723 560.808777,1311.809448 572.940002,1311.808228 
	C688.204895,1311.796509 803.470520,1311.472534 918.733948,1310.862305 
	C937.792236,1310.761475 952.023071,1300.228394 961.933716,1284.762695 
	C972.733032,1267.910278 972.038147,1249.314453 966.926941,1229.824463 
z"/>
<path fill="#4289C1" opacity="1.000000" stroke="none" 
	d="
M1938.000000,1041.531372 
	C1937.332520,1042.891113 1936.237183,1043.704956 1936.060303,1044.684692 
	C1932.339111,1065.282471 1922.957520,1082.983032 1909.652100,1099.026123 
	C1898.941162,1111.941284 1885.843140,1121.584595 1871.217041,1129.200562 
	C1859.581787,1135.259277 1847.142700,1139.276978 1833.856689,1140.025024 
	C1829.086060,1140.293579 1824.321655,1140.957764 1819.554199,1140.958862 
	C1609.903320,1141.006470 1400.252441,1141.115112 1190.601929,1140.839111 
	C1167.162598,1140.808350 1144.395386,1136.049805 1124.161499,1123.025146 
	C1109.612915,1113.660400 1099.557861,1100.534790 1093.073730,1084.692505 
	C1087.076904,1070.040649 1085.234741,1054.599731 1083.660522,1038.868774 
	C1081.862793,1020.901855 1086.423096,1004.906189 1093.469116,989.030396 
	C1105.179443,962.645386 1121.821289,939.294006 1137.842529,915.479980 
	C1178.498779,855.048828 1218.552124,794.212402 1258.958862,733.612732 
	C1295.308716,679.097107 1331.878174,624.727844 1368.220825,570.207275 
	C1405.886597,513.701782 1443.342407,457.056305 1480.988892,400.537903 
	C1517.844238,345.207458 1554.825684,289.961121 1591.736084,234.667313 
	C1592.419434,233.643463 1592.905884,232.488037 1593.692505,231.000015 
	C1591.084595,231.000015 1589.089966,231.000046 1587.095459,231.000046 
	C1456.605347,230.999985 1326.114380,231.230820 1195.625610,230.811218 
	C1168.495483,230.723984 1143.697998,222.149185 1122.567993,204.170975 
	C1101.273071,186.052399 1089.385620,163.123260 1084.872192,135.712418 
	C1080.751953,110.688705 1084.468506,87.049843 1096.134888,64.824066 
	C1106.313599,45.432201 1121.020752,30.016171 1139.850098,18.519033 
	C1153.025269,10.474314 1167.298584,5.796937 1182.335815,3.057852 
	C1185.001587,2.572292 1187.691284,2.219152 1190.185059,1.402437 
	C1404.354248,1.000000 1618.708496,1.000000 1833.359253,1.412473 
	C1834.502075,2.213155 1835.355957,2.954057 1836.193726,2.936295 
	C1847.431396,2.698050 1858.259766,4.988298 1868.994629,7.989526 
	C1883.392944,12.014983 1896.478638,18.643913 1907.308105,28.941475 
	C1925.340942,46.088482 1933.434814,67.960197 1936.073730,92.233353 
	C1936.180298,93.213799 1937.334106,94.080391 1938.000000,95.000015 
	C1938.000000,105.687561 1938.000000,116.375122 1937.630615,127.309814 
	C1936.694336,129.362213 1936.052002,131.147705 1935.571655,132.975769 
	C1929.474365,156.177887 1917.780029,176.721039 1904.818604,196.555954 
	C1896.645386,209.063171 1887.355225,220.835571 1879.006226,233.233932 
	C1857.291504,265.480072 1835.832031,297.897888 1814.248657,330.232513 
	C1759.201660,412.700104 1704.095459,495.128296 1649.100098,577.630310 
	C1579.436401,682.137207 1509.859619,786.702087 1440.243286,891.240540 
	C1435.780151,897.942505 1431.299683,904.633057 1426.379272,911.999695 
	C1429.597656,911.999695 1431.745605,911.999695 1433.893555,911.999695 
	C1559.544678,911.999695 1685.195801,911.910095 1810.846558,912.131348 
	C1824.146240,912.154785 1837.588623,913.100586 1850.706543,915.217957 
	C1870.082397,918.345337 1887.573853,926.598450 1902.202637,939.837280 
	C1921.967529,957.723999 1932.729980,980.407166 1936.080200,1006.747375 
	C1936.184448,1007.566406 1937.336426,1008.252136 1938.000000,1009.000000 
	C1938.000000,1019.687561 1938.000000,1030.375122 1938.000000,1041.531372 
z"/>
<path fill="#000000" opacity="1.000000" stroke="none" 
	d="
M1938.000000,1008.531372 
	C1937.336426,1008.252136 1936.184448,1007.566406 1936.080200,1006.747375 
	C1932.729980,980.407166 1921.967529,957.723999 1902.202637,939.837280 
	C1887.573853,926.598450 1870.082397,918.345337 1850.706543,915.217957 
	C1837.588623,913.100586 1824.146240,912.154785 1810.846558,912.131348 
	C1685.195801,911.910095 1559.544678,911.999695 1433.893555,911.999695 
	C1431.745605,911.999695 1429.597656,911.999695 1426.379272,911.999695 
	C1431.299683,904.633057 1435.780151,897.942505 1440.243286,891.240540 
	C1509.859619,786.702087 1579.436401,682.137207 1649.100098,577.630310 
	C1704.095459,495.128296 1759.201660,412.700104 1814.248657,330.232513 
	C1835.832031,297.897888 1857.291504,265.480072 1879.006226,233.233932 
	C1887.355225,220.835571 1896.645386,209.063171 1904.818604,196.555954 
	C1917.780029,176.721039 1929.474365,156.177887 1935.571655,132.975769 
	C1936.052002,131.147705 1936.694336,129.362213 1937.630615,127.778473 
	C1938.000000,421.354218 1938.000000,714.708435 1938.000000,1008.531372 
z"/>
<path fill="#4289C1" opacity="1.000000" stroke="none" 
	d="
M1.000000,1195.416626 
	C1.666277,1193.906494 2.887837,1192.826538 2.914541,1191.717529 
	C3.250348,1177.771851 9.094877,1165.929077 18.446997,1156.338257 
	C29.073328,1145.440674 42.793545,1140.050781 58.145016,1140.040894 
	C174.448868,1139.966187 290.752838,1139.949585 407.056580,1140.077759 
	C418.736786,1140.090576 430.190765,1142.459229 440.059235,1149.110718 
	C449.607361,1155.546265 455.062073,1165.149170 456.828094,1176.339844 
	C459.046814,1190.398682 460.165405,1204.938232 453.808502,1218.067383 
	C446.973541,1232.183716 439.008911,1245.880005 430.282837,1258.920288 
	C420.238953,1273.929688 408.925140,1288.098877 397.972351,1302.488037 
	C385.622589,1318.712524 372.978943,1334.713379 360.616425,1350.928345 
	C350.628693,1364.028320 340.977844,1377.385498 330.978638,1390.476562 
	C319.490051,1405.517578 307.718933,1420.342529 296.188721,1435.352051 
	C285.638824,1449.085449 275.254272,1462.945557 264.782562,1476.739014 
	C254.233322,1490.634521 243.625702,1504.485962 233.117844,1518.412598 
	C220.944672,1534.546509 208.926422,1550.797729 196.696274,1566.888062 
	C189.714325,1576.073853 182.444229,1585.040405 174.599487,1595.000000 
	C177.483978,1595.000000 179.227188,1595.000000 180.970398,1595.000000 
	C255.618179,1595.000000 330.267334,1594.758545 404.912720,1595.178711 
	C422.468384,1595.277466 438.501984,1600.755615 448.972046,1616.503540 
	C454.983246,1625.545044 457.651550,1635.538574 458.103577,1646.417358 
	C458.678680,1660.257935 456.633698,1673.202393 448.670349,1684.899536 
	C440.442993,1696.984497 429.315002,1704.701660 415.130188,1708.109253 
	C414.566010,1708.244751 414.119171,1708.868530 413.808838,1709.632446 
	C290.312439,1710.000000 166.624878,1710.000000 42.716125,1709.640259 
	C39.899025,1708.517212 37.311581,1707.723633 34.705627,1706.996338 
	C26.310030,1704.653320 18.904577,1700.982422 13.220823,1693.899170 
	C5.768477,1684.611450 3.454012,1673.929321 2.918090,1662.483276 
	C2.846874,1660.962280 1.666658,1659.493164 1.000016,1658.000000 
	C1.000000,1655.958374 1.000000,1653.916626 1.387258,1651.642822 
	C2.173403,1650.735718 2.731468,1650.107788 2.945505,1649.378662 
	C4.398104,1644.430176 4.893976,1638.961548 7.356685,1634.596191 
	C13.416357,1623.854858 19.984512,1613.348633 27.051891,1603.239868 
	C38.247543,1587.226074 49.913715,1571.536621 61.573402,1555.853271 
	C73.824181,1539.374756 86.375816,1523.119995 98.656746,1506.663696 
	C108.793320,1493.080688 118.681602,1479.312622 128.762085,1465.687500 
	C140.101013,1450.361450 151.521606,1435.095581 162.925949,1419.817993 
	C174.040405,1404.928711 185.187485,1390.063599 196.304962,1375.176514 
	C207.512070,1360.169434 218.706955,1345.153320 229.895172,1330.132202 
	C241.083572,1315.110962 252.244827,1300.069580 263.441589,1285.054688 
	C270.785370,1275.206665 278.171051,1265.389771 285.956818,1255.000000 
	C283.330841,1255.000000 281.524353,1255.000000 279.717834,1255.000000 
	C206.727188,1255.000000 133.736130,1255.110718 60.746487,1254.837402 
	C53.028839,1254.808594 45.036171,1253.426758 37.660847,1251.112061 
	C17.289242,1244.718628 4.459376,1227.387085 2.925947,1204.338379 
	C2.827333,1202.856201 1.666630,1201.444458 0.999999,1200.000000 
	C1.000000,1198.611084 1.000000,1197.222168 1.000000,1195.416626 
z"/>
<path fill="#000000" opacity="1.000000" stroke="none" 
	d="
M0.999999,1200.468628 
	C1.666630,1201.444458 2.827333,1202.856201 2.925947,1204.338379 
	C4.459376,1227.387085 17.289242,1244.718628 37.660847,1251.112061 
	C45.036171,1253.426758 53.028839,1254.808594 60.746487,1254.837402 
	C133.736130,1255.110718 206.727188,1255.000000 279.717834,1255.000000 
	C281.524353,1255.000000 283.330841,1255.000000 285.956818,1255.000000 
	C278.171051,1265.389771 270.785370,1275.206665 263.441589,1285.054688 
	C252.244827,1300.069580 241.083572,1315.110962 229.895172,1330.132202 
	C218.706955,1345.153320 207.512070,1360.169434 196.304962,1375.176514 
	C185.187485,1390.063599 174.040405,1404.928711 162.925949,1419.817993 
	C151.521606,1435.095581 140.101013,1450.361450 128.762085,1465.687500 
	C118.681602,1479.312622 108.793320,1493.080688 98.656746,1506.663696 
	C86.375816,1523.119995 73.824181,1539.374756 61.573402,1555.853271 
	C49.913715,1571.536621 38.247543,1587.226074 27.051891,1603.239868 
	C19.984512,1613.348633 13.416357,1623.854858 7.356685,1634.596191 
	C4.893976,1638.961548 4.398104,1644.430176 2.945505,1649.378662 
	C2.731468,1650.107788 2.173403,1650.735718 1.387258,1651.205322 
	C1.000000,1500.979126 1.000000,1350.958130 0.999999,1200.468628 
z"/>
<path fill="#000000" opacity="1.000000" stroke="none" 
	d="
M1938.000000,94.531357 
	C1937.334106,94.080391 1936.180298,93.213799 1936.073730,92.233353 
	C1933.434814,67.960197 1925.340942,46.088482 1907.308105,28.941475 
	C1896.478638,18.643913 1883.392944,12.014983 1868.994629,7.989526 
	C1858.259766,4.988298 1847.431396,2.698050 1836.193726,2.936295 
	C1835.355957,2.954057 1834.502075,2.213155 1833.827881,1.412473 
	C1868.589966,1.000000 1903.179810,1.000000 1938.000000,1.000000 
	C1938.000000,32.020515 1938.000000,63.041599 1938.000000,94.531357 
z"/>
<path fill="#000000" opacity="1.000000" stroke="none" 
	d="
M1.000016,1658.468628 
	C1.666658,1659.493164 2.846874,1660.962280 2.918090,1662.483276 
	C3.454012,1673.929321 5.768477,1684.611450 13.220823,1693.899170 
	C18.904577,1700.982422 26.310030,1704.653320 34.705627,1706.996338 
	C37.311581,1707.723633 39.899025,1708.517212 42.247467,1709.640259 
	C28.397936,1710.000000 14.795874,1710.000000 1.000000,1710.000000 
	C1.000000,1692.979614 1.000000,1675.958374 1.000016,1658.468628 
z"/>
<path fill="#4289C1" opacity="1.000000" stroke="none" 
	d="
M966.966919,1230.228516 
	C972.038147,1249.314453 972.733032,1267.910278 961.933716,1284.762695 
	C952.023071,1300.228394 937.792236,1310.761475 918.733948,1310.862305 
	C803.470520,1311.472534 688.204895,1311.796509 572.940002,1311.808228 
	C560.808777,1311.809448 548.379211,1310.990723 537.048828,1305.062500 
	C524.679443,1298.590698 518.456360,1288.011597 516.063293,1274.809204 
	C515.044800,1269.190308 514.239807,1263.468872 514.077271,1257.772949 
	C513.801270,1248.105225 516.365173,1238.657959 521.737976,1230.942261 
	C540.239441,1204.372925 559.288147,1178.177612 578.468201,1152.089600 
	C601.628357,1120.587769 625.148560,1089.350464 648.488159,1057.980347 
	C670.668335,1028.168701 692.830627,998.343567 714.975037,968.505310 
	C737.881226,937.640320 760.753662,906.750366 783.648010,875.876587 
	C787.595581,870.553162 791.590088,865.264648 795.535339,859.939514 
	C796.285156,858.927429 796.904175,857.818420 798.064819,856.000000 
	C795.412842,856.000000 793.502869,856.000000 791.592957,856.000000 
	C715.928894,856.000000 640.264587,856.093506 564.601013,855.900452 
	C553.094482,855.871094 542.699646,851.610352 533.724792,844.227661 
	C521.228394,833.948486 515.844299,820.517700 514.841553,804.551025 
	C514.017456,791.428955 516.276917,779.444580 522.917908,768.068176 
	C531.215515,753.853821 543.876404,746.257935 559.518616,743.083374 
	C563.836609,742.207092 568.358032,742.044434 572.786316,742.042419 
	C688.948975,741.989136 805.111755,741.956970 921.274292,742.061584 
	C933.950867,742.072998 946.121826,745.360962 955.887390,753.557068 
	C963.546082,759.984802 967.438416,769.250549 968.987732,779.244934 
	C971.695801,796.713135 969.877991,813.228088 961.534485,829.360413 
	C952.582520,846.669006 941.539734,862.385620 929.786255,877.766052 
	C915.344788,896.664062 901.220764,915.804382 886.814575,934.729614 
	C871.491638,954.859131 855.935242,974.810669 840.600952,994.931580 
	C828.247070,1011.141785 816.152100,1027.549438 803.797485,1043.759155 
	C788.462708,1063.878906 772.913818,1083.835571 757.579712,1103.955933 
	C745.221680,1120.171387 733.103333,1136.569580 720.769714,1152.803833 
	C710.894714,1165.802002 700.851074,1178.671997 690.896118,1191.609375 
	C689.727539,1193.128052 688.647461,1194.714966 687.000549,1196.999756 
	C689.615723,1196.999756 691.523376,1196.999756 693.431091,1196.999756 
	C768.595154,1196.999878 843.759460,1196.921509 918.923218,1197.071045 
	C932.763428,1197.098633 945.495056,1201.805176 955.411133,1211.325806 
	C960.489075,1216.201172 963.165283,1223.578125 966.966919,1230.228516 
z"/>
</svg>